HIERARCHY
ROOT Hips
{
	OFFSET -3.958830 18.904000 13.208200
	CHANNELS 6 Xposition Yposition Zposition Zrotation Yrotation Xrotation 
	JOINT LHipJoint
	{
		OFFSET 0.000000 0.000000 0.000000
		CHANNELS 3 Zrotation Yrotation Xrotation
		JOINT LeftUpLeg
		{
			OFFSET 1.800000 -1.400000 0.085000
			CHANNELS 3 Zrotation Yrotation Xrotation
			JOINT LeftLeg
			{
				OFFSET 2.215000 -6.000000 0.000000
				CHANNELS 3 Zrotation Yrotation Xrotation
				JOINT LeftFoot
				{
					OFFSET 2.500000 -6.900000 0.000000
					CHANNELS 3 Zrotation Yrotation Xrotation
					JOINT LeftToeBase
					{
						OFFSET 0.200000 -0.500000 1.950000
						CHANNELS 3 Zrotation Yrotation Xrotation
						End Site
						{
							OFFSET 0.000000 0.000000 0.000000
						}
					}
				}
			}
		}
	}
	JOINT RHipJoint
	{
		OFFSET 0.000000 0.000000 0.000000
		CHANNELS 3 Zrotation Yrotation Xrotation
		JOINT RightUpLeg
		{
			OFFSET -1.800000 -1.400000 0.085000
			CHANNELS 3 Zrotation Yrotation Xrotation
			JOINT RightLeg
			{
				OFFSET -2.215000 -6.000000 0.000000
				CHANNELS 3 Zrotation Yrotation Xrotation
				JOINT RightFoot
				{
					OFFSET -2.500000 -6.900000 0.000000
					CHANNELS 3 Zrotation Yrotation Xrotation
					JOINT RightToeBase
					{
						OFFSET -0.200000 -0.500000 1.950000
						CHANNELS 3 Zrotation Yrotation Xrotation
						End Site
						{
							OFFSET 0.000000 0.000000 0.000000
						}
					}
				}
			}
		}
	}
	JOINT LowerBack
	{
		OFFSET 0.000000 0.000000 0.000000
		CHANNELS 3 Zrotation Yrotation Xrotation
		JOINT Spine
		{
			OFFSET -0.087000 1.940000 -0.288900
			CHANNELS 3 Zrotation Yrotation Xrotation
			JOINT Spine1
			{
				OFFSET 0.000000 1.950000 0.060000
				CHANNELS 3 Zrotation Yrotation Xrotation
				JOINT Neck
				{
					OFFSET 0.000000 0.000000 0.000000
					CHANNELS 3 Zrotation Yrotation Xrotation
					JOINT Neck1
					{
						OFFSET 0.000000 1.600000 0.340000
						CHANNELS 3 Zrotation Yrotation Xrotation
						JOINT Head
						{
							OFFSET 0.000000 1.667000 -0.240000
							CHANNELS 3 Zrotation Yrotation Xrotation
							End Site
							{
								OFFSET 0.000000 0.000000 0.000000
							}
						}
					}
				}
				JOINT LeftShoulder
				{
					OFFSET 0.000000 0.000000 0.000000
					CHANNELS 3 Zrotation Yrotation Xrotation
					JOINT LeftArm
					{
						OFFSET 2.700000 1.550000 -0.730000
						CHANNELS 3 Zrotation Yrotation Xrotation
						JOINT LeftForeArm
						{
							OFFSET 5.450000 0.000000 0.000000
							CHANNELS 3 Zrotation Yrotation Xrotation
							JOINT LeftHand
							{
								OFFSET 3.450000 0.000000 0.000000
								CHANNELS 3 Zrotation Yrotation Xrotation
								JOINT LeftHandIndex1
								{
									OFFSET 0.750000 0.000000 0.000000
									CHANNELS 3 Zrotation Yrotation Xrotation
									End Site
									{
										OFFSET 0.000000 0.000000 0.000000
									}
								}
							}
						}
					}
				}
				JOINT RightShoulder
				{
					OFFSET 0.000000 0.000000 0.000000
					CHANNELS 3 Zrotation Yrotation Xrotation
					JOINT RightArm
					{
						OFFSET -2.700000 1.550000 -0.730000
						CHANNELS 3 Zrotation Yrotation Xrotation
						JOINT RightForeArm
						{
							OFFSET -5.450000 0.000000 0.000000
							CHANNELS 3 Zrotation Yrotation Xrotation
							JOINT RightHand
							{
								OFFSET -3.450000 0.000000 0.000000
								CHANNELS 3 Zrotation Yrotation Xrotation
								JOINT RightHandIndex1
								{
									OFFSET -0.750000 0.000000 0.000000
									CHANNELS 3 Zrotation Yrotation Xrotation
									End Site
									{
										OFFSET 0.000000 0.000000 0.000000
									}
								}
							}
						}
					}
				}
			}
		}
	}
}
MOTION
Frames: 14
Frame Time: 0.016667
-5.432380 17.063660 0.903630 -12.122984 -31.432625 -9.965095 -14.918134 13.158310 4.130258 6.451945 -4.092565 -28.196794 -13.796624 7.939614 19.735168 0.274977 4.033864 2.949265 0.809410 0.696600 0.637980 18.319840 -10.999678 2.910840 0.922430 2.290717 4.964970 -0.021323 -10.852153 57.246892 -1.889975 -9.154944 1.471236 0.127450 -0.357370 0.079230 -3.637223 -2.083850 -8.286076 15.597708 0.689437 24.964170 -10.225466 5.983038 -5.170941 6.611867 -6.251474 -11.741599 -19.096033 12.458583 56.779250 7.989890 2.122650 -3.552170 -12.077052 10.516868 -2.014101 -38.626187 11.895596 -8.233731 12.593598 -4.076104 -0.438323 -3.385946 2.986952 0.416370 -0.346530 0.418970 0.299820 -1.598932 -2.003468 9.424200 6.313412 -21.955597 -1.802097 -15.298332 0.625261 0.635663 3.063447 -1.412820 0.281060 -0.121370 -0.590200 -0.024460 
-5.367010 17.160560 0.722650 -12.716823 -34.093649 -8.702930 -14.866899 13.294629 3.919430 5.858269 -3.526977 -27.342933 -10.287057 6.008569 15.409692 0.045493 3.082159 3.297814 0.840010 0.719990 0.693140 18.352167 -11.153172 2.903674 1.121063 1.685124 3.858764 -0.801835 -9.968079 55.202173 -1.789222 -8.780810 1.570744 0.161980 -0.351480 0.108660 -3.761171 -1.994918 -8.078449 16.228492 0.603501 24.955655 -9.464970 5.992823 -1.911072 6.166554 -5.726312 -10.912698 -17.873360 12.102984 55.400525 5.949180 3.951630 -5.657940 -15.345136 7.946083 -2.438222 -36.933803 6.808730 -6.747188 12.319203 -4.421230 -0.680223 -3.432665 2.994730 0.416760 -0.308360 0.412420 0.278220 2.227434 -1.293715 8.884869 9.895434 -21.088585 -2.336301 -13.803845 -1.288736 0.634015 3.015296 -1.383088 0.272310 -0.108010 -0.576810 -0.058390 
-5.301300 17.241420 0.552780 -12.988752 -36.463074 -7.053075 -14.846384 13.352318 3.846023 5.646122 -3.245341 -27.529848 -7.685749 4.875704 12.656314 -0.086841 2.519943 3.482740 0.881770 0.759440 0.735070 18.365817 -11.250305 2.840441 0.783547 1.396173 2.278736 -1.193042 -9.395271 53.515860 -1.703618 -8.455184 1.630751 0.201670 -0.383380 0.134190 -3.826635 -1.940381 -7.952582 16.200834 0.757519 24.534647 -8.564255 5.979442 0.001815 5.491476 -5.197454 -10.721526 -16.919112 12.302686 54.919076 5.511870 5.448630 -6.725980 -16.213764 5.773836 -2.189795 -36.138849 2.495144 -5.680566 12.797021 -5.430922 -0.957883 -3.423657 3.055302 0.432970 -0.305600 0.428530 0.269320 4.356652 -0.282758 8.575019 15.134030 -18.784684 -3.255751 -13.439144 -3.593103 0.813608 3.030125 -1.397505 0.273190 -0.138190 -0.587930 -0.086300 
-5.209210 17.307640 0.370410 -13.189245 -38.877922 -5.501052 -14.834141 13.379413 3.827928 5.878617 -3.143747 -28.546638 -5.765606 4.451550 12.511663 -0.167247 2.329083 3.546505 0.897450 0.782160 0.759220 18.373434 -11.331008 2.746924 -0.336314 1.278452 0.745303 -0.564203 -9.427903 51.457609 -1.612565 -8.116348 1.709538 0.230130 -0.383610 0.132620 -3.891711 -1.895411 -7.838528 16.026768 0.656742 24.784129 -7.698847 5.780205 1.674331 4.506823 -5.254058 -10.567812 -16.987046 12.733722 52.955890 5.755950 6.567320 -9.216100 -16.843353 3.738853 -1.763966 -35.218531 -0.687945 -5.069674 13.313731 -7.300398 -1.351006 -3.407223 3.056660 0.457620 -0.309190 0.438300 0.258280 6.884788 1.185703 8.294032 19.502531 -16.701933 -4.006534 -13.560562 -3.062291 0.735778 2.986704 -1.395560 0.252970 -0.109710 -0.580990 -0.104800 
-5.131380 17.360350 0.182760 -12.237137 -41.873624 -5.144186 -14.880225 13.439878 3.822145 6.189271 -3.148327 -29.006703 -5.242862 4.707809 14.528478 -0.168749 2.466734 3.454258 0.913140 0.808100 0.801540 18.317231 -11.395029 2.636602 -1.866485 1.428959 -0.545706 -0.275245 -9.257220 49.926787 -1.520930 -7.867005 1.758587 0.241430 -0.429680 0.167020 -3.720084 -1.931774 -7.776538 13.660498 1.620140 24.731485 -5.958653 6.153681 4.828063 3.884795 -4.115457 -10.790926 -14.532239 11.874831 52.788097 2.685290 8.602370 -10.080330 -17.185940 0.304646 -0.725412 -31.559252 -3.869623 -4.071462 12.421118 -8.674087 -1.466676 -3.408127 3.107058 0.440530 -0.287940 0.458290 0.234080 8.555262 3.602344 8.431039 24.144179 -14.065197 -4.492626 -11.950270 -2.102005 0.483994 2.944630 -1.421133 0.278030 -0.159910 -0.587920 -0.128780 
-5.025080 17.391580 -0.002620 -11.968241 -45.601672 -4.573845 -14.923889 13.457932 3.875981 7.359651 -3.204494 -30.243844 -5.488255 5.716877 19.552384 -0.118055 3.108586 3.183649 0.950810 0.839480 0.863780 18.279248 -11.378686 2.566049 -2.619357 1.977949 -2.270490 -0.492246 -8.769328 49.351853 -1.468511 -7.647824 1.793581 0.259980 -0.476130 0.188210 -3.634029 -1.979475 -7.740501 12.472130 1.978832 25.635411 -4.827766 6.304924 6.812978 3.265300 -4.077240 -11.139668 -14.516098 12.062617 52.084607 0.712980 9.958670 -11.845870 -17.158064 -2.310294 0.198786 -29.054122 -6.346345 -2.904156 12.398093 -6.767318 -1.245980 -3.413212 3.123349 0.458400 -0.298690 0.491610 0.222230 9.795401 6.226974 8.587316 26.731550 -10.445661 -4.452353 -9.716139 0.627168 0.063389 2.878710 -1.422093 0.289820 -0.179250 -0.607830 -0.153730 
-4.908590 17.415530 -0.188370 -11.308059 -50.457326 -4.817009 -14.998627 13.490620 4.014379 8.691888 -3.345853 -31.334361 -6.004282 7.454837 26.705512 0.035188 4.312154 2.716088 0.946810 0.829120 0.892150 18.216363 -11.290216 2.480982 -3.185823 2.750787 -3.866687 -1.612408 -7.760385 49.329229 -1.416602 -7.421117 1.841647 0.238540 -0.505600 0.204270 -3.457413 -2.167909 -7.776736 10.769584 2.589693 27.870520 -3.993601 6.939037 7.940854 2.839932 -4.419251 -12.253532 -15.866388 13.351786 52.238280 -0.743210 11.516720 -12.666940 -17.656166 -5.545646 1.556253 -25.050863 -6.946913 -2.362992 12.959913 -5.931458 -1.138843 -3.400923 3.127985 0.479870 -0.310700 0.520270 0.199120 11.280894 10.101359 9.525690 27.710374 -8.383704 -4.430976 -8.807905 3.314717 -0.171950 2.822434 -1.408247 0.301750 -0.192580 -0.600230 -0.170160 
-4.805090 17.416950 -0.365610 -10.003452 -54.297031 -5.831430 -15.119271 13.422595 4.266376 9.463491 -3.910173 -32.412609 -6.983736 9.950140 35.140757 0.267434 6.031216 2.095184 0.983520 0.846470 0.961090 18.149596 -11.081686 2.347136 -3.393580 3.344174 -5.134153 -3.045477 -6.691005 49.797009 -1.402876 -7.277538 1.859956 0.256440 -0.561950 0.206360 -3.143013 -2.468748 -7.898744 7.998235 3.552732 30.104445 -2.185980 7.512511 8.712950 2.252116 -4.562320 -12.662010 -16.520038 13.513077 52.460474 -2.877490 12.281810 -14.502900 -18.678695 -7.945951 2.307296 -20.022988 -7.471908 -2.221691 14.153696 -5.663841 -1.155345 -3.357828 3.123066 0.524970 -0.340340 0.557220 0.189260 13.596688 13.258663 10.021028 27.183519 -5.254045 -4.058774 -10.113191 3.750033 -0.271307 2.807969 -1.436219 0.292740 -0.197360 -0.625680 -0.205360 
-4.677790 17.394940 -0.549620 -9.011519 -56.841241 -6.744037 -15.242768 13.225691 4.598084 10.084794 -4.881390 -33.960117 -7.883009 12.799319 43.833304 0.649520 7.872172 1.439833 1.062210 0.964890 0.993450 18.120345 -10.733482 2.229283 -3.289741 4.022772 -7.147830 -3.563715 -6.385147 51.584377 -1.466557 -7.374089 1.799482 0.302420 -0.636230 0.212310 -2.917078 -2.837799 -8.083673 5.554290 3.860019 33.301381 -0.584329 7.422981 8.536693 1.300511 -5.446743 -12.941129 -18.493701 14.734541 50.592246 -2.364790 12.753080 -17.687400 -19.116013 -9.629127 2.842648 -14.851814 -7.799508 -2.315772 15.240835 -5.724677 -1.151437 -3.270130 3.197552 0.535370 -0.400200 0.618330 0.203220 16.088460 16.003999 10.306927 26.204856 -2.148299 -3.633560 -10.237962 4.869715 -0.435067 2.809400 -1.467641 0.347110 -0.226990 -0.672420 -0.189370 
-4.540390 17.372350 -0.727500 -8.493336 -58.712654 -7.856819 -15.359684 13.057753 4.963470 10.614870 -6.331440 -35.187994 -8.469673 16.042859 53.446003 1.172511 9.921116 0.801896 1.121690 1.041920 1.036950 18.103512 -10.308568 2.092261 -3.074230 4.417173 -8.565031 -3.914747 -6.327409 53.264043 -1.554879 -7.488003 1.756411 0.311920 -0.716030 0.208620 -2.605396 -3.424419 -8.327095 3.467342 3.956684 37.843496 1.160126 7.261035 7.474629 1.058987 -6.262304 -13.881005 -21.034674 15.964583 50.256841 -3.160810 13.216310 -20.239490 -20.176263 -11.847636 3.514031 -8.974395 -6.657602 -2.920343 16.765519 -6.209985 -1.163784 -3.146281 3.229483 0.575210 -0.474930 0.697480 0.229090 18.113628 19.346285 11.283989 24.720511 0.125311 -2.700425 -8.690158 2.801890 -0.120866 2.887650 -1.443552 0.387110 -0.243740 -0.734050 -0.176110 
-4.412600 17.318200 -0.895010 -8.094091 -60.041412 -8.461163 -15.447669 12.885600 5.210029 10.389151 -7.672281 -36.205521 -7.758365 18.730031 62.456464 1.689396 11.686234 0.319009 1.154170 1.102610 1.040670 18.105025 -9.953045 2.034690 -2.582037 5.017926 -10.609209 -4.521539 -6.050258 55.056780 -1.626961 -7.614482 1.726096 0.315210 -0.746750 0.208350 -2.417395 -3.798675 -8.518756 2.164145 4.368764 41.604733 2.397363 7.495239 6.392553 0.897397 -6.891864 -14.342881 -22.798580 16.530234 49.568583 -3.417040 13.090030 -22.141930 -20.231525 -13.022930 3.588778 -3.864048 -6.164443 -3.609995 18.081309 -8.219777 -1.344459 -3.061531 3.239340 0.583780 -0.517910 0.752510 0.264700 18.848043 21.451650 11.855510 23.381814 2.380298 -1.529855 -4.072194 1.369454 0.089329 2.937328 -1.363519 0.423810 -0.235450 -0.772260 -0.142070 
-4.280530 17.233610 -1.030290 -7.858549 -61.641775 -8.431479 -15.545566 12.687603 5.465289 10.180874 -8.927151 -37.390891 -8.870972 21.905269 68.495311 2.118601 13.138016 -0.049652 1.183280 1.143390 1.038830 18.099336 -9.532768 2.001738 -2.432435 5.802646 -12.823466 -4.458200 -6.294774 57.461629 -1.714384 -7.913569 1.628843 0.324200 -0.770930 0.206140 -2.209751 -4.271015 -8.713950 1.135521 4.692735 44.360955 4.019265 7.443213 4.799920 0.629765 -7.750062 -14.395483 -25.227364 17.734555 48.225297 -3.340660 13.104300 -23.388810 -20.554294 -13.354312 3.319409 0.386922 -5.825936 -4.191032 19.587666 -9.830990 -1.536741 -2.995377 3.268497 0.594710 -0.552620 0.776550 0.283120 20.088076 22.664546 11.917936 22.126016 4.769106 -0.933696 -2.506541 0.573143 0.118131 2.968202 -1.339056 0.445560 -0.240530 -0.791280 -0.125100 
-4.137120 17.147660 -1.159150 -7.526010 -64.052377 -7.957374 -15.657785 12.434342 5.708443 10.361306 -9.718630 -39.149421 -10.609213 25.845086 73.433786 2.540165 14.595315 -0.376806 1.163820 1.113700 1.016250 18.088082 -9.017754 2.049324 -2.825686 7.206219 -15.895712 -3.320523 -7.089627 60.058290 -1.777357 -8.313666 1.485232 0.314420 -0.755910 0.201060 -2.017602 -4.731687 -8.939092 -0.114698 5.361460 46.960092 5.630362 7.571652 2.492938 0.378567 -8.786835 -14.416941 -27.756540 19.200700 45.607427 -3.470890 13.416920 -22.702590 -21.275997 -13.620994 3.141709 5.474709 -5.473409 -4.072932 17.881648 -7.617598 -1.038413 -3.015488 3.265139 0.583290 -0.553780 0.752050 0.276950 21.877414 23.855298 11.815824 20.638947 7.531116 -0.433503 -1.701862 0.115389 0.100293 2.996721 -1.327065 0.438560 -0.245130 -0.775610 -0.118910 
-4.007610 17.068580 -1.264390 -7.253956 -65.411552 -7.794667 -15.746741 12.219489 5.917171 10.122564 -11.064840 -40.097551 -12.016274 30.053626 79.071071 3.004388 16.124948 -0.669761 1.149460 1.088380 0.988300 18.080776 -8.539956 2.082763 -3.550372 8.117866 -18.496387 -1.738084 -8.359243 61.893965 -1.841852 -8.657717 1.392616 0.303100 -0.733590 0.166430 -1.820449 -5.236962 -9.151535 -0.624618 5.694795 49.656526 7.194878 7.628762 0.559187 0.353757 -9.581098 -15.252869 -30.769207 20.844574 44.076755 -2.515800 13.231380 -22.078480 -21.128215 -14.657606 3.416586 8.619426 -4.767337 -4.377778 18.009192 -7.890846 -1.006880 -2.989340 3.229018 0.601490 -0.572720 0.733020 0.289290 22.616785 25.443580 12.266365 20.382155 8.810448 -0.183433 -0.706630 0.350599 0.112656 2.994303 -1.285419 0.413880 -0.210210 -0.768570 -0.111990 
